<svg width="53" height="53" viewBox="0 0 53 53" fill="none" xmlns="http://www.w3.org/2000/svg">
<path d="M38.875 47.9325C38.875 47.9325 36.525 31.455 31.5 22.75C26.475 14.045 14.125 5.06753 14.125 5.06753M51.16 27.95C37.6325 24.9825 19.1475 37.37 15.4425 48.545M37.535 4.52253C33.815 15.5725 15.685 27.78 2.2225 25.13M14 4.84503C17.7986 2.64684 22.1112 1.4928 26.5 1.50003C40.3075 1.50003 51.5 12.6925 51.5 26.5C51.5 40.3075 40.3075 51.5 26.5 51.5C12.6925 51.5 1.5 40.3075 1.5 26.5C1.5 21.9475 2.7175 17.675 4.845 14" stroke="black" stroke-width="3" stroke-linecap="round"/>
</svg>
