<svg width="49" height="43" viewBox="0 0 49 43" fill="none" xmlns="http://www.w3.org/2000/svg">
<path fill-rule="evenodd" clip-rule="evenodd" d="M0 0H8.29569L10.7644 6.78947H49L35.3196 29.4211H17.8979L12.6515 35.8339C13.0032 36.2823 13.2677 36.7919 13.4222 37.3421H35.9513C36.4994 35.3899 38.4326 33.9474 40.7331 33.9474C43.46 33.9474 45.6705 35.9738 45.6705 38.4737C45.6705 40.9736 43.46 43 40.7331 43C38.4326 43 36.4994 41.5575 35.9513 39.6053H13.4222C12.8741 41.5575 10.941 43 8.64036 43C5.91354 43 3.70301 40.9736 3.70301 38.4737C3.70301 35.9738 5.91354 33.9474 8.64036 33.9474C9.39654 33.9474 10.113 34.1033 10.7536 34.3817L15.9052 28.0849L6.51637 2.26316H0V0ZM18.1704 27.1579H33.865L44.8097 9.05263H11.5872L18.1704 27.1579ZM40.7331 36.2105C39.3697 36.2105 38.2645 37.2237 38.2645 38.4737C38.2645 39.7236 39.3697 40.7368 40.7331 40.7368C42.0966 40.7368 43.2018 39.7236 43.2018 38.4737C43.2018 37.2237 42.0966 36.2105 40.7331 36.2105ZM6.17169 38.4737C6.17169 37.2237 7.27696 36.2105 8.64036 36.2105C10.0038 36.2105 11.109 37.2237 11.109 38.4737C11.109 39.7236 10.0038 40.7368 8.64036 40.7368C7.27696 40.7368 6.17169 39.7236 6.17169 38.4737Z" fill="black"/>
</svg>
