<svg width="53" height="50" viewBox="0 0 53 50" fill="none" xmlns="http://www.w3.org/2000/svg">
<path d="M51.5545 46.6667H43.3636V38.889H49.6273C49.847 38.889 50.0639 38.8312 50.2614 38.7201C50.4589 38.6089 50.6318 38.4473 50.767 38.2475C50.9022 38.0477 50.9961 37.815 51.0415 37.5671C51.087 37.3192 51.0828 37.0625 51.0294 36.8168L43.3203 1.26148C43.2419 0.901107 43.0614 0.581241 42.8074 0.352688C42.5534 0.124135 42.2404 0 41.9182 0C41.596 0 41.283 0.124135 41.029 0.352688C40.7749 0.581241 40.5944 0.901107 40.5161 1.26148L32.807 36.8168C32.7535 37.0625 32.7494 37.3192 32.7948 37.5671C32.8403 37.815 32.9342 38.0477 33.0694 38.2475C33.2045 38.4473 33.3774 38.6089 33.5749 38.7201C33.7724 38.8312 33.9893 38.889 34.2091 38.889H40.4727V46.6667H24.0909V41.1112H26.5C26.8834 41.1112 27.251 40.9356 27.5221 40.623C27.7932 40.3105 27.9455 39.8865 27.9455 39.4445C27.9455 39.0025 27.7932 38.5786 27.5221 38.266C27.251 37.9535 26.8834 37.7779 26.5 37.7779H24.0909V32.2224H26.5C26.8834 32.2224 27.251 32.0468 27.5221 31.7342C27.7932 31.4216 27.9455 30.9977 27.9455 30.5557C27.9455 30.1137 27.7932 29.6898 27.5221 29.3772C27.251 29.0646 26.8834 28.889 26.5 28.889H5.3C4.91664 28.889 4.54898 29.0646 4.27791 29.3772C4.00683 29.6898 3.85455 30.1137 3.85455 30.5557C3.85455 30.9977 4.00683 31.4216 4.27791 31.7342C4.54898 32.0468 4.91664 32.2224 5.3 32.2224H7.70909V37.7779H5.3C4.91664 37.7779 4.54898 37.9535 4.27791 38.266C4.00683 38.5786 3.85455 39.0025 3.85455 39.4445C3.85455 39.8865 4.00683 40.3105 4.27791 40.623C4.54898 40.9356 4.91664 41.1112 5.3 41.1112H7.70909V46.6667H1.44545C1.0621 46.6667 0.694439 46.8423 0.423364 47.1548C0.152288 47.4674 0 47.8913 0 48.3333C0 48.7754 0.152288 49.1993 0.423364 49.5118C0.694439 49.8244 1.0621 50 1.44545 50H51.5545C51.9379 50 52.3056 49.8244 52.5766 49.5118C52.8477 49.1993 53 48.7754 53 48.3333C53 47.8913 52.8477 47.4674 52.5766 47.1548C52.3056 46.8423 51.9379 46.6667 51.5545 46.6667ZM41.9182 8.5392L47.7771 35.5557H36.0593L41.9182 8.5392ZM10.6 32.2224H21.2V37.7779H10.6V32.2224ZM10.6 41.1112H21.2V46.6667H10.6V41.1112ZM23.6091 18.8891C24.8479 18.8891 26.0589 18.4656 27.089 17.672C28.119 16.8784 28.9219 15.7504 29.3959 14.4308C29.87 13.1111 29.9941 11.6589 29.7524 10.258C29.5107 8.85702 28.9141 7.57015 28.0382 6.56011C27.1622 5.55008 26.0461 4.86223 24.8311 4.58356C23.616 4.30489 22.3566 4.44792 21.2121 4.99455C20.0676 5.54117 19.0893 6.46686 18.4011 7.65454C17.7128 8.84222 17.3455 10.2385 17.3455 11.667C17.3455 13.5824 18.0054 15.4194 19.18 16.7738C20.3547 18.1282 21.9479 18.8891 23.6091 18.8891ZM23.6091 7.7781C24.2762 7.7781 24.9282 8.00618 25.4829 8.43349C26.0375 8.8608 26.4698 9.46816 26.7251 10.1788C26.9804 10.8894 27.0471 11.6713 26.917 12.4256C26.7869 13.18 26.4657 13.8729 25.994 14.4168C25.5223 14.9607 24.9213 15.331 24.2671 15.4811C23.6128 15.6311 22.9347 15.5541 22.3184 15.2598C21.7021 14.9655 21.1754 14.467 20.8048 13.8275C20.4342 13.188 20.2364 12.4361 20.2364 11.667C20.2364 10.6356 20.5917 9.64642 21.2242 8.91712C21.8567 8.18782 22.7146 7.7781 23.6091 7.7781Z" fill="black"/>
</svg>
