<svg width="50" height="50" viewBox="0 0 50 50" fill="none" xmlns="http://www.w3.org/2000/svg">
<path d="M6.18519 5.37615e-05C3.87407 5.37615e-05 1.83333 1.3688 1.40741 3.33755C0.85926 5.8938 0 10.4438 0 14.0625C0 17.9094 2.35555 21.2907 5.90741 23.2375C6.91111 23.7907 7.40741 24.5032 7.40741 25.1125V26.3938C7.40741 26.45 7.4037 26.5063 7.3963 26.5625C7.2963 27.375 6.83704 31.0281 6.4037 34.7844C5.97778 38.4875 5.55556 42.4406 5.55556 43.75C5.55556 45.4076 6.33598 46.9973 7.72513 48.1694C9.11429 49.3415 10.9984 50 12.963 50C14.9275 50 16.8116 49.3415 18.2008 48.1694C19.5899 46.9973 20.3704 45.4076 20.3704 43.75C20.3704 42.4375 19.9481 38.4875 19.5222 34.7844C19.2056 32.0436 18.8747 29.304 18.5296 26.5657L18.5185 26.3938V25.1125C18.5185 24.5 19.0148 23.7875 20.0185 23.2375C21.8316 22.245 23.3219 20.8856 24.3536 19.2832C25.3853 17.6808 25.9258 15.8861 25.9259 14.0625C25.9259 10.4438 25.0667 5.8938 24.5185 3.33755C24.3126 2.39674 23.7212 1.54696 22.8478 0.936854C21.9744 0.326744 20.8746 -0.0048566 19.7407 5.37615e-05C18.4815 5.37615e-05 17.3333 0.396928 16.4667 1.05005C15.4764 0.370901 14.2391 0.00012509 12.963 5.37615e-05C11.6333 5.37615e-05 10.4148 0.393803 9.45926 1.05005C8.56 0.371604 7.39151 -0.00236845 6.18519 5.37615e-05ZM11.1111 4.68755C11.1111 4.27315 11.3062 3.87572 11.6535 3.5827C12.0008 3.28967 12.4718 3.12505 12.963 3.12505C13.4541 3.12505 13.9251 3.28967 14.2724 3.5827C14.6197 3.87572 14.8148 4.27315 14.8148 4.68755V14.0625C14.8148 14.4769 15.0099 14.8744 15.3572 15.1674C15.7045 15.4604 16.1755 15.625 16.6667 15.625C17.1578 15.625 17.6288 15.4604 17.9761 15.1674C18.3234 14.8744 18.5185 14.4769 18.5185 14.0625V4.1563C18.5185 4.02087 18.5501 3.88677 18.6116 3.76166C18.673 3.63654 18.763 3.52286 18.8765 3.4271C18.99 3.33134 19.1247 3.25537 19.273 3.20355C19.4213 3.15172 19.5802 3.12505 19.7407 3.12505C20.3222 3.12505 20.7778 3.46255 20.8741 3.89692C21.4185 6.43755 22.2222 10.7469 22.2222 14.0625C22.2224 15.3658 21.8362 16.6483 21.0987 17.7935C20.3613 18.9386 19.296 19.9098 18 20.6188C16.3741 21.5094 14.8148 23.075 14.8148 25.1125V26.3938C14.8148 26.5604 14.8247 26.7271 14.8444 26.8938C14.9481 27.7 15.4037 31.3438 15.837 35.0875C16.2741 38.8844 16.6667 42.6344 16.6667 43.75C16.6667 44.5788 16.2765 45.3737 15.5819 45.9597C14.8873 46.5458 13.9452 46.875 12.963 46.875C11.9807 46.875 11.0386 46.5458 10.344 45.9597C9.64947 45.3737 9.25926 44.5788 9.25926 43.75C9.25926 42.6344 9.65185 38.8844 10.0889 35.0875C10.5222 31.3438 10.9778 27.7 11.0815 26.8938C11.1012 26.7271 11.1111 26.5604 11.1111 26.3938V25.1125C11.1111 23.075 9.55185 21.5094 7.92593 20.6188C6.62989 19.9098 5.56465 18.9386 4.8272 17.7935C4.08975 16.6483 3.70353 15.3658 3.7037 14.0625C3.7037 10.75 4.50741 6.43755 5.05185 3.89692C5.10258 3.67559 5.24465 3.47659 5.45282 3.33527C5.66099 3.19396 5.92179 3.11947 6.18889 3.12505C6.5124 3.12588 6.82233 3.23489 7.05074 3.4282C7.27915 3.62151 7.40741 3.88334 7.40741 4.1563V14.0625C7.40741 14.4769 7.60251 14.8744 7.9498 15.1674C8.29709 15.4604 8.76812 15.625 9.25926 15.625C9.7504 15.625 10.2214 15.4604 10.5687 15.1674C10.916 14.8744 11.1111 14.4769 11.1111 14.0625V4.68755ZM29.6296 14.0625C29.6296 10.3329 31.3856 6.75609 34.5112 4.11886C37.6368 1.48163 41.876 5.37615e-05 46.2963 5.37615e-05C46.7874 5.37615e-05 47.2585 0.164674 47.6058 0.457699C47.953 0.750725 48.1481 1.14815 48.1481 1.56255V23.3688L48.2222 24.0688C48.5109 26.8766 48.7924 29.6849 49.0667 32.4938C49.5259 37.2031 50 42.3719 50 43.75C50 45.4076 49.2196 46.9973 47.8304 48.1694C46.4413 49.3415 44.5572 50 42.5926 50C40.628 50 38.7439 49.3415 37.3548 48.1694C35.9656 46.9973 35.1852 45.4076 35.1852 43.75C35.1852 42.375 35.6593 37.2031 36.1185 32.4938C36.3481 30.1156 36.5815 27.8156 36.7556 26.1125L36.8667 25H35.1852C33.7118 25 32.2987 24.5062 31.2568 23.6271C30.2149 22.748 29.6296 21.5557 29.6296 20.3125V14.0625ZM40.7333 23.575L40.6556 24.3407L40.4444 26.3813C40.2704 28.0813 40.037 30.375 39.8074 32.75C39.3407 37.5531 38.8889 42.5375 38.8889 43.75C38.8889 44.5788 39.2791 45.3737 39.9737 45.9597C40.6683 46.5458 41.6103 46.875 42.5926 46.875C43.5749 46.875 44.5169 46.5458 45.2115 45.9597C45.9061 45.3737 46.2963 44.5788 46.2963 43.75C46.2963 42.5375 45.8444 37.5531 45.3778 32.75C45.103 29.9463 44.8203 27.1432 44.5296 24.3407L44.4519 23.5782V23.575L44.4444 23.4375V3.23443C41.3587 3.61022 38.5368 4.91178 36.4961 6.90053C34.4554 8.88927 33.3325 11.432 33.3333 14.0625V20.3125C33.3333 20.7269 33.5284 21.1244 33.8757 21.4174C34.223 21.7104 34.694 21.875 35.1852 21.875H38.8889C39.1458 21.8751 39.3999 21.9202 39.635 22.0075C39.8701 22.0949 40.0811 22.2226 40.2546 22.3825C40.4281 22.5424 40.5602 22.731 40.6426 22.9363C40.7251 23.1416 40.7559 23.3591 40.7333 23.575Z" fill="black"/>
</svg>
